<svg version="1" xmlns="http://www.w3.org/2000/svg" width="682.667" height="682.667" viewBox="0 0 512.000000 512.000000"><path d="M230 50.4c-9.7 2.2-15.8 4.6-22.6 9.2-20.5 13.8-37.7 38.8-51.9 75.7-2 5.3-4 9.9-4.4 10.1-.3.3-2.7.7-5.1 1.1-28.1 3.8-65.3 14.3-85.4 24-42 20.2-54.1 46.7-34.2 75.5 16.2 23.3 52.5 48.4 95.1 65.5l8 3.2.2 4.2c.1 2.5 1.3 6.1 2.9 8.9 5.3 9 10.4 19.7 10.4 21.9 0 1.2.9 4.7 2.1 7.7 2.7 7.4 7.7 11.6 13.6 11.6 3.6 0 4.3.3 4.7 2.2 3 14.6 5.5 21.6 11.9 33.8 10.4 19.9 19.8 28.6 50.8 47.3 14.2 8.6 16.1 9.5 23.9 11.1 12.4 2.7 22-.6 43.4-14.7 28.1-18.6 42.5-32.5 50.9-49.3 5.5-10.9 8.4-20.7 8.6-29.5.1-1.2 1-1.5 3.9-1.4 7.4.5 12-4.6 14.8-16.4.9-4 3.6-10.9 5.9-15.4 4.5-8.9 3.3-8.1 19-12.7 64.6-19.3 104.9-56.2 97.9-89.6-5.2-24.5-33.9-48.5-80.4-67.2-12.5-5-37.5-13-49.1-15.7-2.4-.6-2.8-1.4-4.4-8.8-4.6-21.5-12.4-38.5-22-48.2-5.3-5.4-7.6-6.9-16-10.5-1.1-.5-6.3-1.8-11.5-3-13.6-3.1-20.2-6.6-29.5-15.5-13.1-12.4-20.1-15.5-36-16-5.5-.1-12.5.3-15.5.9zm-92.6 267.2c.9.3 1.6 1.6 1.7 2.8 0 1.8 3.7 10.9 3.8 9.6 0-.3-.6-2.7-1.4-5.4-.8-2.7-1.3-5.1-1.1-5.3.5-.6 9.7 2.5 11.1 3.7 1.6 1.3 1.8 9.3.4 13.9-1.2 4.1-.5 9.6 1.1 8.6.6-.3 1.1-2.1 1.1-3.8.1-2.6.2-2.7.6-.7.2 1.4.6 4 .9 5.7.3 1.8 1.6 4.5 2.9 5.9 1.4 1.5 2.5 3.4 2.6 4.3 0 .9.2 2.3.4 3.1 1.8 6.8 1.7 8-.7 8-6.2-.1-9.9-4.9-13.3-17-1.4-5.1-4-11.8-5.8-14.9-4.8-8.7-6.5-12.4-6.7-15.1-.4-4.3-.3-4.4 2.4-3.4zm67.3 22.3c7.5 2.5 11.4 3.2 21.5 3.6 24.9 1.1 26.8 1.3 30.1 3.2 1.8 1.1 4.2 3.8 5.3 6.1 1.9 3.8 2.1 5.6 1.8 16-.2 6.4-.5 12.4-.7 13.2-.3 1.3-1.3 5.9-2.3 11.5-.3 1.1-.7 4.5-1 7.5-.4 3-1 6.3-1.5 7.2-1.3 2.5-1.1 5.4.6 6.8.8.7 1.5 2.3 1.5 3.6 0 3.4-5 5.6-13.8 6.2-9.4.6-8.1 2.5 1.7 2.4 6.1 0 7.1.2 7.6 1.9.4 1.1 1.9 2.5 3.3 3.2 5.2 2.1 7.2 4.7 7.1 9.1 0 5.9-1.8 9.8-6.7 15L255 461l-4.8-1c-8.5-1.9-11.6-3.4-22.7-11.1-6-4.1-15.5-10.6-21-14.3-12.3-8.4-19.2-15-25.3-24.1-2.6-3.9-5-7.2-5.4-7.5-1.3-1-6.8-18.9-8.9-28.4-1-5-2.2-12.5-2.5-16.6l-.6-7.5 3.4-1.3c1.9-.7 5-2.7 6.9-4.5 4.2-4.1 8.8-7.3 11.4-8 3.6-.9 9.8.2 19.2 3.2z"/><path d="M235.5 425c-.3.5.1 1 .9 1 .9 0 1.6-.5 1.6-1 0-.6-.4-1-.9-1-.6 0-1.3.4-1.6 1z"/></svg>